<svg xmlns="http://www.w3.org/2000/svg" xmlns:xlink="http://www.w3.org/1999/xlink" id="body_1" preserveAspectRatio="xMinYMin meet" viewBox="0 0 1056 816"><defs><clipPath id="1"><path clip-rule="evenodd" d="M0 612L0 0L0 0L792 0L792 0L792 612L792 612L0 612z" /></clipPath><clipPath id="2"><path clip-rule="evenodd" d="M405.04 230.63L629.2 230.63L629.2 230.63L629.2 221.14L629.2 221.14L405.04 221.14z" /></clipPath><clipPath id="3"><path clip-rule="evenodd" d="M405.04 230.63L629.2 230.63L629.2 230.63L629.2 221.14L629.2 221.14L405.04 221.14z" /></clipPath><clipPath id="4"><path clip-rule="evenodd" d="M704.68 298.59L770.54 298.59L770.54 298.59L770.54 289.1L770.54 289.1L704.68 289.1z" /></clipPath><clipPath id="5"><path clip-rule="evenodd" d="M704.68 298.59L770.54 298.59L770.54 298.59L770.54 289.1L770.54 289.1L704.68 289.1z" /></clipPath><clipPath id="6"><path clip-rule="evenodd" d="M21.75 343.38L245.91 343.38L245.91 343.38L245.91 333.89L245.91 333.89L21.75 333.89z" /></clipPath><clipPath id="7"><path clip-rule="evenodd" d="M21.75 343.38L245.91 343.38L245.91 343.38L245.91 333.89L245.91 333.89L21.75 333.89z" /></clipPath><clipPath id="8"><path clip-rule="evenodd" d="M134.36 90.59003L560.07 90.59003L560.07 90.59003L560.07 79.07001L560.07 79.07001L134.36 79.07001z" /></clipPath><clipPath id="9"><path clip-rule="evenodd" d="M134.36 90.59003L560.07 90.59003L560.07 90.59003L560.07 79.07001L560.07 79.07001L134.36 79.07001z" /></clipPath><clipPath id="10"><path clip-rule="evenodd" d="M320.34 230.42L386.2 230.42L386.2 230.42L386.2 220.93L386.2 220.93L320.34 220.93z" /></clipPath><clipPath id="11"><path clip-rule="evenodd" d="M320.34 230.42L386.2 230.42L386.2 230.42L386.2 220.93L386.2 220.93L320.34 220.93z" /></clipPath><clipPath id="12"><path clip-rule="evenodd" d="M320.89 286.44L386.75 286.44L386.75 286.44L386.75 276.95L386.75 276.95L320.89 276.95z" /></clipPath><clipPath id="13"><path clip-rule="evenodd" d="M320.89 286.44L386.75 286.44L386.75 286.44L386.75 276.95L386.75 276.95L320.89 276.95z" /></clipPath><clipPath id="14"><path clip-rule="evenodd" d="M661.29 154.18L770.68 154.18L770.68 154.18L770.68 143.2L770.68 143.2L661.29 143.2z" /></clipPath><clipPath id="15"><path clip-rule="evenodd" d="M661.29 154.18L770.68 154.18L770.68 154.18L770.68 143.2L770.68 143.2L661.29 143.2z" /></clipPath><clipPath id="16"><path clip-rule="evenodd" d="M407.99 478.73L632.15 478.73L632.15 478.73L632.15 469.24L632.15 469.24L407.99 469.24z" /></clipPath><clipPath id="17"><path clip-rule="evenodd" d="M407.99 478.73L632.15 478.73L632.15 478.73L632.15 469.24L632.15 469.24L407.99 469.24z" /></clipPath><clipPath id="18"><path clip-rule="evenodd" d="M704.01 406.18L769.87 406.18L769.87 406.18L769.87 396.69L769.87 396.69L704.01 396.69z" /></clipPath><clipPath id="19"><path clip-rule="evenodd" d="M704.01 406.18L769.87 406.18L769.87 406.18L769.87 396.69L769.87 396.69L704.01 396.69z" /></clipPath><clipPath id="20"><path clip-rule="evenodd" d="M21.75 353.96L245.91 353.96L245.91 353.96L245.91 344.47L245.91 344.47L21.75 344.47z" /></clipPath><clipPath id="21"><path clip-rule="evenodd" d="M21.75 353.96L245.91 353.96L245.91 353.96L245.91 344.47L245.91 344.47L21.75 344.47z" /></clipPath><clipPath id="22"><path clip-rule="evenodd" d="M130.7 394.68L246.1 394.68L246.1 394.68L246.1 385.07L246.1 385.07L130.7 385.07z" /></clipPath><clipPath id="23"><path clip-rule="evenodd" d="M130.7 394.68L246.1 394.68L246.1 394.68L246.1 385.07L246.1 385.07L130.7 385.07z" /></clipPath><clipPath id="24"><path clip-rule="evenodd" d="M527.2 426.89L630.55 426.89L630.55 426.89L630.55 417.28L630.55 417.28L527.2 417.28z" /></clipPath><clipPath id="25"><path clip-rule="evenodd" d="M527.2 426.89L630.55 426.89L630.55 426.89L630.55 417.28L630.55 417.28L527.2 417.28z" /></clipPath><clipPath id="26"><path clip-rule="evenodd" d="M130.7 499.61L246.1 499.61L246.1 499.61L246.1 490L246.1 490L130.7 490z" /></clipPath><clipPath id="27"><path clip-rule="evenodd" d="M130.7 499.61L246.1 499.61L246.1 499.61L246.1 490L246.1 490L130.7 490z" /></clipPath><clipPath id="28"><path clip-rule="evenodd" d="M527.2 506.82L630.55 506.82L630.55 506.82L630.55 497.21L630.55 497.21L527.2 497.21z" /></clipPath><clipPath id="29"><path clip-rule="evenodd" d="M527.2 506.82L630.55 506.82L630.55 506.82L630.55 497.21L630.55 497.21L527.2 497.21z" /></clipPath><clipPath id="30"><path clip-rule="evenodd" d="M635.41 366.79L701.27 366.79L701.27 366.79L701.27 357.3L701.27 357.3L635.41 357.3z" /></clipPath><clipPath id="31"><path clip-rule="evenodd" d="M635.41 366.79L701.27 366.79L701.27 366.79L701.27 357.3L701.27 357.3L635.41 357.3z" /></clipPath><clipPath id="32"><path clip-rule="evenodd" d="M405.04 309.79L629.2 309.79L629.2 309.79L629.2 300.3L629.2 300.3L405.04 300.3z" /></clipPath><clipPath id="33"><path clip-rule="evenodd" d="M405.04 309.79L629.2 309.79L629.2 309.79L629.2 300.3L629.2 300.3L405.04 300.3z" /></clipPath><clipPath id="34"><path clip-rule="evenodd" d="M21.53 142.72L174.88 142.72L174.88 142.72L174.88 131.74L174.88 131.74L21.53 131.74z" /></clipPath><clipPath id="35"><path clip-rule="evenodd" d="M21.53 142.72L174.88 142.72L174.88 142.72L174.88 131.74L174.88 131.74L21.53 131.74z" /></clipPath><clipPath id="36"><path clip-rule="evenodd" d="M409.12 455.84L575.55 455.84L575.55 455.84L575.55 439.74L575.55 439.74L409.12 439.74z" /></clipPath><clipPath id="37"><path clip-rule="evenodd" d="M409.12 455.84L575.55 455.84L575.55 455.84L575.55 439.74L575.55 439.74L409.12 439.74z" /></clipPath><clipPath id="38"><path clip-rule="evenodd" d="M405.04 332.12L629.2 332.12L629.2 332.12L629.2 322.63L629.2 322.63L405.04 322.63z" /></clipPath><clipPath id="39"><path clip-rule="evenodd" d="M405.04 332.12L629.2 332.12L629.2 332.12L629.2 322.63L629.2 322.63L405.04 322.63z" /></clipPath><clipPath id="40"><path clip-rule="evenodd" d="M21.75 241.44L245.91 241.44L245.91 241.44L245.91 231.95L245.91 231.95L21.75 231.95z" /></clipPath><clipPath id="41"><path clip-rule="evenodd" d="M21.75 241.44L245.91 241.44L245.91 241.44L245.91 231.95L245.91 231.95L21.75 231.95z" /></clipPath><clipPath id="42"><path clip-rule="evenodd" d="M320.71 308.84L386.57 308.84L386.57 308.84L386.57 299.35L386.57 299.35L320.71 299.35z" /></clipPath><clipPath id="43"><path clip-rule="evenodd" d="M320.71 308.84L386.57 308.84L386.57 308.84L386.57 299.35L386.57 299.35L320.71 299.35z" /></clipPath><clipPath id="44"><path clip-rule="evenodd" d="M405.45 391.43L629.61 391.43L629.61 391.43L629.61 381.94L629.61 381.94L405.45 381.94z" /></clipPath><clipPath id="45"><path clip-rule="evenodd" d="M405.45 391.43L629.61 391.43L629.61 391.43L629.61 381.94L629.61 381.94L405.45 381.94z" /></clipPath><clipPath id="46"><path clip-rule="evenodd" d="M661.29 142.72L770.68 142.72L770.68 142.72L770.68 131.74L770.68 131.74L661.29 131.74z" /></clipPath><clipPath id="47"><path clip-rule="evenodd" d="M661.29 142.72L770.68 142.72L770.68 142.72L770.68 131.74L770.68 131.74L661.29 131.74z" /></clipPath><clipPath id="48"><path clip-rule="evenodd" d="M21.75 308.85L245.91 308.85L245.91 308.85L245.91 299.36L245.91 299.36L21.75 299.36z" /></clipPath><clipPath id="49"><path clip-rule="evenodd" d="M21.75 308.85L245.91 308.85L245.91 308.85L245.91 299.36L245.91 299.36L21.75 299.36z" /></clipPath><clipPath id="50"><path clip-rule="evenodd" d="M21.75 460.98L245.91 460.98L245.91 460.98L245.91 451.49L245.91 451.49L21.75 451.49z" /></clipPath><clipPath id="51"><path clip-rule="evenodd" d="M21.75 460.98L245.91 460.98L245.91 460.98L245.91 451.49L245.91 451.49L21.75 451.49z" /></clipPath><clipPath id="52"><path clip-rule="evenodd" d="M405.04 355.22L629.2 355.22L629.2 355.22L629.2 345.73L629.2 345.73L405.04 345.73z" /></clipPath><clipPath id="53"><path clip-rule="evenodd" d="M405.04 355.22L629.2 355.22L629.2 355.22L629.2 345.73L629.2 345.73L405.04 345.73z" /></clipPath><clipPath id="54"><path clip-rule="evenodd" d="M250.91 264.21L316.77 264.21L316.77 264.21L316.77 254.72L316.77 254.72L250.91 254.72z" /></clipPath><clipPath id="55"><path clip-rule="evenodd" d="M250.91 264.21L316.77 264.21L316.77 264.21L316.77 254.72L316.77 254.72L250.91 254.72z" /></clipPath><clipPath id="56"><path clip-rule="evenodd" d="M320.34 394.68L386.2 394.68L386.2 394.68L386.2 385.19L386.2 385.19L320.34 385.19z" /></clipPath><clipPath id="57"><path clip-rule="evenodd" d="M320.34 394.68L386.2 394.68L386.2 394.68L386.2 385.19L386.2 385.19L320.34 385.19z" /></clipPath><clipPath id="58"><path clip-rule="evenodd" d="M22.05 92.88L132.17 92.88L132.17 92.88L132.17 76.78003L132.17 76.78003L22.05 76.78003z" /></clipPath><clipPath id="59"><path clip-rule="evenodd" d="M22.05 92.88L132.17 92.88L132.17 92.88L132.17 76.78003L132.17 76.78003L22.05 76.78003z" /></clipPath><clipPath id="60"><path clip-rule="evenodd" d="M429.18 75.92999L770.59 75.92999L770.59 75.92999L770.59 61.78998L770.59 61.78998L429.18 61.78998z" /></clipPath><clipPath id="61"><path clip-rule="evenodd" d="M429.18 75.92999L770.59 75.92999L770.59 75.92999L770.59 61.78998L770.59 61.78998L429.18 61.78998z" /></clipPath><clipPath id="62"><path clip-rule="evenodd" d="M21.75 275.97L245.91 275.97L245.91 275.97L245.91 266.48L245.91 266.48L21.75 266.48z" /></clipPath><clipPath id="63"><path clip-rule="evenodd" d="M21.75 275.97L245.91 275.97L245.91 275.97L245.91 266.48L245.91 266.48L21.75 266.48z" /></clipPath><clipPath id="64"><path clip-rule="evenodd" d="M260.32 214.81L316.78 214.81L316.78 214.81L316.78 207L316.78 207L260.32 207z" /></clipPath><clipPath id="65"><path clip-rule="evenodd" d="M260.32 214.81L316.78 214.81L316.78 214.81L316.78 207L316.78 207L260.32 207z" /></clipPath><clipPath id="66"><path clip-rule="evenodd" d="M644.43 214.81L700.88 214.81L700.88 214.81L700.88 207L700.88 207L644.43 207z" /></clipPath><clipPath id="67"><path clip-rule="evenodd" d="M644.43 214.81L700.88 214.81L700.88 214.81L700.88 207L700.88 207L644.43 207z" /></clipPath><clipPath id="68"><path clip-rule="evenodd" d="M260.97 435.21L317.42 435.21L317.42 435.21L317.42 427.4L317.42 427.4L260.97 427.4z" /></clipPath><clipPath id="69"><path clip-rule="evenodd" d="M260.97 435.21L317.42 435.21L317.42 435.21L317.42 427.4L317.42 427.4L260.97 427.4z" /></clipPath><clipPath id="70"><path clip-rule="evenodd" d="M644.07 465.75L700.53 465.75L700.53 465.75L700.53 457.94L700.53 457.94L644.07 457.94z" /></clipPath><clipPath id="71"><path clip-rule="evenodd" d="M644.07 465.75L700.53 465.75L700.53 465.75L700.53 457.94L700.53 457.94L644.07 457.94z" /></clipPath><clipPath id="72"><path clip-rule="evenodd" d="M636.64 491.73L702.5 491.73L702.5 491.73L702.5 482.24L702.5 482.24L636.64 482.24z" /></clipPath><clipPath id="73"><path clip-rule="evenodd" d="M636.64 491.73L702.5 491.73L702.5 491.73L702.5 482.24L702.5 482.24L636.64 482.24z" /></clipPath><clipPath id="74"><path clip-rule="evenodd" d="M704.03 379.15L769.89 379.15L769.89 379.15L769.89 369.66L769.89 369.66L704.03 369.66z" /></clipPath><clipPath id="75"><path clip-rule="evenodd" d="M704.03 379.15L769.89 379.15L769.89 379.15L769.89 369.66L769.89 369.66L704.03 369.66z" /></clipPath><clipPath id="76"><path clip-rule="evenodd" d="M635.61 309.79L701.47 309.79L701.47 309.79L701.47 300.3L701.47 300.3L635.61 300.3z" /></clipPath><clipPath id="77"><path clip-rule="evenodd" d="M635.61 309.79L701.47 309.79L701.47 309.79L701.47 300.3L701.47 300.3L635.61 300.3z" /></clipPath><clipPath id="78"><path clip-rule="evenodd" d="M405.04 321.18L629.2 321.18L629.2 321.18L629.2 311.69L629.2 311.69L405.04 311.69z" /></clipPath><clipPath id="79"><path clip-rule="evenodd" d="M405.04 321.18L629.2 321.18L629.2 321.18L629.2 311.69L629.2 311.69L405.04 311.69z" /></clipPath><clipPath id="80"><path clip-rule="evenodd" d="M251.57 449.96L317.43 449.96L317.43 449.96L317.43 440.47L317.43 440.47L251.57 440.47z" /></clipPath><clipPath id="81"><path clip-rule="evenodd" d="M251.57 449.96L317.43 449.96L317.43 449.96L317.43 440.47L317.43 440.47L251.57 440.47z" /></clipPath><clipPath id="82"><path clip-rule="evenodd" d="M321.05 460.98L386.91 460.98L386.91 460.98L386.91 451.49L386.91 451.49L321.05 451.49z" /></clipPath><clipPath id="83"><path clip-rule="evenodd" d="M321.05 460.98L386.91 460.98L386.91 460.98L386.91 451.49L386.91 451.49L321.05 451.49z" /></clipPath><clipPath id="84"><path clip-rule="evenodd" d="M635.43 321.18L701.29 321.18L701.29 321.18L701.29 311.69L701.29 311.69L635.43 311.69z" /></clipPath><clipPath id="85"><path clip-rule="evenodd" d="M635.43 321.18L701.29 321.18L701.29 321.18L701.29 311.69L701.29 311.69L635.43 311.69z" /></clipPath><clipPath id="86"><path clip-rule="evenodd" d="M635.25 426.86L701.11 426.86L701.11 426.86L701.11 417.37L701.11 417.37L635.25 417.37z" /></clipPath><clipPath id="87"><path clip-rule="evenodd" d="M635.25 426.86L701.11 426.86L701.11 426.86L701.11 417.37L701.11 417.37L635.25 417.37z" /></clipPath><clipPath id="88"><path clip-rule="evenodd" d="M21.75 286.44L245.91 286.44L245.91 286.44L245.91 276.95L245.91 276.95L21.75 276.95z" /></clipPath><clipPath id="89"><path clip-rule="evenodd" d="M21.75 286.44L245.91 286.44L245.91 286.44L245.91 276.95L245.91 276.95L21.75 276.95z" /></clipPath><clipPath id="90"><path clip-rule="evenodd" d="M635.06 264.42L700.92 264.42L700.92 264.42L700.92 254.93L700.92 254.93L635.06 254.93z" /></clipPath><clipPath id="91"><path clip-rule="evenodd" d="M635.06 264.42L700.92 264.42L700.92 264.42L700.92 254.93L700.92 254.93L635.06 254.93z" /></clipPath><clipPath id="92"><path clip-rule="evenodd" d="M251.1 366.52L316.96 366.52L316.96 366.52L316.96 357.03L316.96 357.03L251.1 357.03z" /></clipPath><clipPath id="93"><path clip-rule="evenodd" d="M251.1 366.52L316.96 366.52L316.96 366.52L316.96 357.03L316.96 357.03L251.1 357.03z" /></clipPath><clipPath id="94"><path clip-rule="evenodd" d="M405.04 298.59L629.2 298.59L629.2 298.59L629.2 289.1L629.2 289.1L405.04 289.1z" /></clipPath><clipPath id="95"><path clip-rule="evenodd" d="M405.04 298.59L629.2 298.59L629.2 298.59L629.2 289.1L629.2 289.1L405.04 289.1z" /></clipPath><clipPath id="96"><path clip-rule="evenodd" d="M251.1 353.96L316.96 353.96L316.96 353.96L316.96 344.47L316.96 344.47L251.1 344.47z" /></clipPath><clipPath id="97"><path clip-rule="evenodd" d="M251.1 353.96L316.96 353.96L316.96 353.96L316.96 344.47L316.96 344.47L251.1 344.47z" /></clipPath><clipPath id="98"><path clip-rule="evenodd" d="M250.46 499.61L316.32 499.61L316.32 499.61L316.32 490.12L316.32 490.12L250.46 490.12z" /></clipPath><clipPath id="99"><path clip-rule="evenodd" d="M250.46 499.61L316.32 499.61L316.32 499.61L316.32 490.12L316.32 490.12L250.46 490.12z" /></clipPath><clipPath id="100"><path clip-rule="evenodd" d="M704.94 275.63L770.8 275.63L770.8 275.63L770.8 266.14L770.8 266.14L704.94 266.14z" /></clipPath><clipPath id="101"><path clip-rule="evenodd" d="M704.94 275.63L770.8 275.63L770.8 275.63L770.8 266.14L770.8 266.14L704.94 266.14z" /></clipPath><clipPath id="102"><path clip-rule="evenodd" d="M21.75 366.52L245.91 366.52L245.91 366.52L245.91 357.03L245.91 357.03L21.75 357.03z" /></clipPath><clipPath id="103"><path clip-rule="evenodd" d="M21.75 366.52L245.91 366.52L245.91 366.52L245.91 357.03L245.91 357.03L21.75 357.03z" /></clipPath><clipPath id="104"><path clip-rule="evenodd" d="M181.24 131.51L655.8 131.51L655.8 131.51L655.8 120.53L655.8 120.53L181.24 120.53z" /></clipPath><clipPath id="105"><path clip-rule="evenodd" d="M181.24 131.51L655.8 131.51L655.8 131.51L655.8 120.53L655.8 120.53L181.24 120.53z" /></clipPath><clipPath id="106"><path clip-rule="evenodd" d="M405.04 366.79L629.2 366.79L629.2 366.79L629.2 357.3L629.2 357.3L405.04 357.3z" /></clipPath><clipPath id="107"><path clip-rule="evenodd" d="M405.04 366.79L629.2 366.79L629.2 366.79L629.2 357.3L629.2 357.3L405.04 357.3z" /></clipPath><clipPath id="108"><path clip-rule="evenodd" d="M393.39 36.78998L495.24 36.78998L495.24 36.78998L495.24 25.08997L495.24 25.08997L393.39 25.08997z" /></clipPath><clipPath id="109"><path clip-rule="evenodd" d="M393.39 36.78998L495.24 36.78998L495.24 36.78998L495.24 25.08997L495.24 25.08997L393.39 25.08997z" /></clipPath><clipPath id="110"><path clip-rule="evenodd" d="M181.24 154.18L655.8 154.18L655.8 154.18L655.8 143.2L655.8 143.2L181.24 143.2z" /></clipPath><clipPath id="111"><path clip-rule="evenodd" d="M181.24 154.18L655.8 154.18L655.8 154.18L655.8 143.2L655.8 143.2L181.24 143.2z" /></clipPath><clipPath id="112"><path clip-rule="evenodd" d="M15.71 575.47L744.72 575.47L744.72 575.47L744.72 565L744.72 565L15.71 565z" /></clipPath><clipPath id="113"><path clip-rule="evenodd" d="M15.71 575.47L744.72 575.47L744.72 575.47L744.72 565L744.72 565L15.71 565z" /></clipPath><clipPath id="114"><path clip-rule="evenodd" d="M634.7 241.83L700.56 241.83L700.56 241.83L700.56 232.34L700.56 232.34L634.7 232.34z" /></clipPath><clipPath id="115"><path clip-rule="evenodd" d="M634.7 241.83L700.56 241.83L700.56 241.83L700.56 232.34L700.56 232.34L634.7 232.34z" /></clipPath><clipPath id="116"><path clip-rule="evenodd" d="M405.04 253.22L629.2 253.22L629.2 253.22L629.2 243.73L629.2 243.73L405.04 243.73z" /></clipPath><clipPath id="117"><path clip-rule="evenodd" d="M405.04 253.22L629.2 253.22L629.2 253.22L629.2 243.73L629.2 243.73L405.04 243.73z" /></clipPath><clipPath id="118"><path clip-rule="evenodd" d="M251.1 297.64L316.96 297.64L316.96 297.64L316.96 288.15L316.96 288.15L251.1 288.15z" /></clipPath><clipPath id="119"><path clip-rule="evenodd" d="M251.1 297.64L316.96 297.64L316.96 297.64L316.96 288.15L316.96 288.15L251.1 288.15z" /></clipPath><clipPath id="120"><path clip-rule="evenodd" d="M706.96 506.88L772.82 506.88L772.82 506.88L772.82 497.39L772.82 497.39L706.96 497.39z" /></clipPath><clipPath id="121"><path clip-rule="evenodd" d="M706.96 506.88L772.82 506.88L772.82 506.88L772.82 497.39L772.82 497.39L706.96 497.39z" /></clipPath><clipPath id="122"><path clip-rule="evenodd" d="M643.8 27.22998L778.64 27.22998L778.64 27.22998L778.64 15.19L778.64 15.19L643.8 15.19z" /></clipPath><clipPath id="123"><path clip-rule="evenodd" d="M643.8 27.22998L778.64 27.22998L778.64 27.22998L778.64 15.19L778.64 15.19L643.8 15.19z" /></clipPath><clipPath id="124"><path clip-rule="evenodd" d="M631.31 205.16L770.58 205.16L770.58 205.16L770.58 189.06L770.58 189.06L631.31 189.06z" /></clipPath><clipPath id="125"><path clip-rule="evenodd" d="M631.31 205.16L770.58 205.16L770.58 205.16L770.58 189.06L770.58 189.06L631.31 189.06z" /></clipPath><clipPath id="126"><path clip-rule="evenodd" d="M630.81 456.81L771.53 456.81L771.53 456.81L771.53 440.71L771.53 440.71L630.81 440.71z" /></clipPath><clipPath id="127"><path clip-rule="evenodd" d="M630.81 456.81L771.53 456.81L771.53 456.81L771.53 440.71L771.53 440.71L630.81 440.71z" /></clipPath><clipPath id="128"><path clip-rule="evenodd" d="M636.14 392.41L702 392.41L702 392.41L702 382.92L702 382.92L636.14 382.92z" /></clipPath><clipPath id="129"><path clip-rule="evenodd" d="M636.14 392.41L702 392.41L702 392.41L702 382.92L702 382.92L636.14 382.92z" /></clipPath><clipPath id="130"><path clip-rule="evenodd" d="M635.06 355.22L700.92 355.22L700.92 355.22L700.92 345.73L700.92 345.73L635.06 345.73z" /></clipPath><clipPath id="131"><path clip-rule="evenodd" d="M635.06 355.22L700.92 355.22L700.92 355.22L700.92 345.73L700.92 345.73L635.06 345.73z" /></clipPath><clipPath id="132"><path clip-rule="evenodd" d="M329.75 214.81L386.2 214.81L386.2 214.81L386.2 207L386.2 207L329.75 207z" /></clipPath><clipPath id="133"><path clip-rule="evenodd" d="M329.75 214.81L386.2 214.81L386.2 214.81L386.2 207L386.2 207L329.75 207z" /></clipPath><clipPath id="134"><path clip-rule="evenodd" d="M713.71 214.81L770.17 214.81L770.17 214.81L770.17 207L770.17 207L713.71 207z" /></clipPath><clipPath id="135"><path clip-rule="evenodd" d="M713.71 214.81L770.17 214.81L770.17 214.81L770.17 207L770.17 207L713.71 207z" /></clipPath><clipPath id="136"><path clip-rule="evenodd" d="M330.46 435.21L386.92 435.21L386.92 435.21L386.92 427.4L386.92 427.4L330.46 427.4z" /></clipPath><clipPath id="137"><path clip-rule="evenodd" d="M330.46 435.21L386.92 435.21L386.92 435.21L386.92 427.4L386.92 427.4L330.46 427.4z" /></clipPath><clipPath id="138"><path clip-rule="evenodd" d="M715.06 465.73L771.52 465.73L771.52 465.73L771.52 457.92L771.52 457.92L715.06 457.92z" /></clipPath><clipPath id="139"><path clip-rule="evenodd" d="M715.06 465.73L771.52 465.73L771.52 465.73L771.52 457.92L771.52 457.92L715.06 457.92z" /></clipPath><clipPath id="140"><path clip-rule="evenodd" d="M393.39 46.90002L495.24 46.90002L495.24 46.90002L495.24 35.21002L495.24 35.21002L393.39 35.21002z" /></clipPath><clipPath id="141"><path clip-rule="evenodd" d="M393.39 46.90002L495.24 46.90002L495.24 46.90002L495.24 35.21002L495.24 35.21002L393.39 35.21002z" /></clipPath><clipPath id="142"><path clip-rule="evenodd" d="M704.62 343.8L770.48 343.8L770.48 343.8L770.48 334.31L770.48 334.31L704.62 334.31z" /></clipPath><clipPath id="143"><path clip-rule="evenodd" d="M704.62 343.8L770.48 343.8L770.48 343.8L770.48 334.31L770.48 334.31L704.62 334.31z" /></clipPath><clipPath id="144"><path clip-rule="evenodd" d="M247.29 424.3L385.83 424.3L385.83 424.3L385.83 408.2L385.83 408.2L247.29 408.2z" /></clipPath><clipPath id="145"><path clip-rule="evenodd" d="M247.29 424.3L385.83 424.3L385.83 424.3L385.83 408.2L385.83 408.2L247.29 408.2z" /></clipPath><clipPath id="146"><path clip-rule="evenodd" d="M181.24 120.03L655.8 120.03L655.8 120.03L655.8 109.05L655.8 109.05L181.24 109.05z" /></clipPath><clipPath id="147"><path clip-rule="evenodd" d="M181.24 120.03L655.8 120.03L655.8 120.03L655.8 109.05L655.8 109.05L181.24 109.05z" /></clipPath><clipPath id="148"><path clip-rule="evenodd" d="M21.75 297.64L245.91 297.64L245.91 297.64L245.91 288.15L245.91 288.15L21.75 288.15z" /></clipPath><clipPath id="149"><path clip-rule="evenodd" d="M21.75 297.64L245.91 297.64L245.91 297.64L245.91 288.15L245.91 288.15L21.75 288.15z" /></clipPath><clipPath id="150"><path clip-rule="evenodd" d="M635.02 230.63L700.88 230.63L700.88 230.63L700.88 221.14L700.88 221.14L635.02 221.14z" /></clipPath><clipPath id="151"><path clip-rule="evenodd" d="M635.02 230.63L700.88 230.63L700.88 230.63L700.88 221.14L700.88 221.14L635.02 221.14z" /></clipPath><clipPath id="152"><path clip-rule="evenodd" d="M497.61 46.90002L719.52 46.90002L719.52 46.90002L719.52 35.21002L719.52 35.21002L497.61 35.21002z" /></clipPath><clipPath id="153"><path clip-rule="evenodd" d="M497.61 46.90002L719.52 46.90002L719.52 46.90002L719.52 35.21002L719.52 35.21002L497.61 35.21002z" /></clipPath><clipPath id="154"><path clip-rule="evenodd" d="M21.53 154.18L174.88 154.18L174.88 154.18L174.88 143.2L174.88 143.2L21.53 143.2z" /></clipPath><clipPath id="155"><path clip-rule="evenodd" d="M21.53 154.18L174.88 154.18L174.88 154.18L174.88 143.2L174.88 143.2L21.53 143.2z" /></clipPath><clipPath id="156"><path clip-rule="evenodd" d="M22.05 424.3L208.83 424.3L208.83 424.3L208.83 408.2L208.83 408.2L22.05 408.2z" /></clipPath><clipPath id="157"><path clip-rule="evenodd" d="M22.05 424.3L208.83 424.3L208.83 424.3L208.83 408.2L208.83 408.2L22.05 408.2z" /></clipPath><clipPath id="158"><path clip-rule="evenodd" d="M661.2 120.03L770.59 120.03L770.59 120.03L770.59 109.05L770.59 109.05L661.2 109.05z" /></clipPath><clipPath id="159"><path clip-rule="evenodd" d="M661.2 120.03L770.59 120.03L770.59 120.03L770.59 109.05L770.59 109.05L661.2 109.05z" /></clipPath><clipPath id="160"><path clip-rule="evenodd" d="M15.71 588.04L744.72 588.04L744.72 588.04L744.72 577.57L744.72 577.57L15.71 577.57z" /></clipPath><clipPath id="161"><path clip-rule="evenodd" d="M320.71 343.38L386.57 343.38L386.57 343.38L386.57 333.89L386.57 333.89L320.71 333.89z" /></clipPath><clipPath id="162"><path clip-rule="evenodd" d="M320.71 343.38L386.57 343.38L386.57 343.38L386.57 333.89L386.57 333.89L320.71 333.89z" /></clipPath><clipPath id="163"><path clip-rule="evenodd" d="M661.29 131.51L770.68 131.51L770.68 131.51L770.68 120.53L770.68 120.53L661.29 120.53z" /></clipPath><clipPath id="164"><path clip-rule="evenodd" d="M661.29 131.51L770.68 131.51L770.68 131.51L770.68 120.53L770.68 120.53L661.29 120.53z" /></clipPath><clipPath id="165"><path clip-rule="evenodd" d="M320.93 472.18L386.79 472.18L386.79 472.18L386.79 462.69L386.79 462.69L320.93 462.69z" /></clipPath><clipPath id="166"><path clip-rule="evenodd" d="M320.93 472.18L386.79 472.18L386.79 472.18L386.79 462.69L386.79 462.69L320.93 462.69z" /></clipPath><clipPath id="167"><path clip-rule="evenodd" d="M704.31 253.22L770.17 253.22L770.17 253.22L770.17 243.73L770.17 243.73L704.31 243.73z" /></clipPath><clipPath id="168"><path clip-rule="evenodd" d="M704.31 253.22L770.17 253.22L770.17 253.22L770.17 243.73L770.17 243.73L704.31 243.73z" /></clipPath><clipPath id="169"><path clip-rule="evenodd" d="M704.68 332.12L770.54 332.12L770.54 332.12L770.54 322.63L770.54 322.63L704.68 322.63z" /></clipPath><clipPath id="170"><path clip-rule="evenodd" d="M704.68 332.12L770.54 332.12L770.54 332.12L770.54 322.63L770.54 322.63L704.68 322.63z" /></clipPath><clipPath id="171"><path clip-rule="evenodd" d="M635.06 286.65L700.92 286.65L700.92 286.65L700.92 277.16L700.92 277.16L635.06 277.16z" /></clipPath><clipPath id="172"><path clip-rule="evenodd" d="M635.06 286.65L700.92 286.65L700.92 286.65L700.92 277.16L700.92 277.16L635.06 277.16z" /></clipPath><clipPath id="173"><path clip-rule="evenodd" d="M18.23 76.40997L351.16 76.40997L351.16 76.40997L351.16 60.95996L351.16 60.95996L18.23 60.95996z" /></clipPath><clipPath id="174"><path clip-rule="evenodd" d="M18.23 76.40997L351.16 76.40997L351.16 76.40997L351.16 60.95996L351.16 60.95996L18.23 60.95996z" /></clipPath><clipPath id="175"><path clip-rule="evenodd" d="M705.69 479.71L771.55 479.71L771.55 479.71L771.55 470.22L771.55 470.22L705.69 470.22z" /></clipPath><clipPath id="176"><path clip-rule="evenodd" d="M705.69 479.71L771.55 479.71L771.55 479.71L771.55 470.22L771.55 470.22L705.69 470.22z" /></clipPath><clipPath id="177"><path clip-rule="evenodd" d="M21.75 230.42L245.91 230.42L245.91 230.42L245.91 220.93L245.91 220.93L21.75 220.93z" /></clipPath><clipPath id="178"><path clip-rule="evenodd" d="M21.75 230.42L245.91 230.42L245.91 230.42L245.91 220.93L245.91 220.93L21.75 220.93z" /></clipPath><clipPath id="179"><path clip-rule="evenodd" d="M405.04 264.43L629.2 264.43L629.2 264.43L629.2 254.94L629.2 254.94L405.04 254.94z" /></clipPath><clipPath id="180"><path clip-rule="evenodd" d="M405.04 264.43L629.2 264.43L629.2 264.43L629.2 254.94L629.2 254.94L405.04 254.94z" /></clipPath><clipPath id="181"><path clip-rule="evenodd" d="M320.79 275.97L386.65 275.97L386.65 275.97L386.65 266.48L386.65 266.48L320.79 266.48z" /></clipPath><clipPath id="182"><path clip-rule="evenodd" d="M320.79 275.97L386.65 275.97L386.65 275.97L386.65 266.48L386.65 266.48L320.79 266.48z" /></clipPath><clipPath id="183"><path clip-rule="evenodd" d="M405.04 275.63L629.2 275.63L629.2 275.63L629.2 266.14L629.2 266.14L405.04 266.14z" /></clipPath><clipPath id="184"><path clip-rule="evenodd" d="M405.04 275.63L629.2 275.63L629.2 275.63L629.2 266.14L629.2 266.14L405.04 266.14z" /></clipPath><clipPath id="185"><path clip-rule="evenodd" d="M405.72 403.49L629.88 403.49L629.88 403.49L629.88 394L629.88 394L405.72 394z" /></clipPath><clipPath id="186"><path clip-rule="evenodd" d="M405.72 403.49L629.88 403.49L629.88 403.49L629.88 394L629.88 394L405.72 394z" /></clipPath><clipPath id="187"><path clip-rule="evenodd" d="M405.04 241.83L629.2 241.83L629.2 241.83L629.2 232.34L629.2 232.34L405.04 232.34z" /></clipPath><clipPath id="188"><path clip-rule="evenodd" d="M405.04 241.83L629.2 241.83L629.2 241.83L629.2 232.34L629.2 232.34L405.04 232.34z" /></clipPath><clipPath id="189"><path clip-rule="evenodd" d="M405.03 343.65L629.19 343.65L629.19 343.65L629.19 334.16L629.19 334.16L405.03 334.16z" /></clipPath><clipPath id="190"><path clip-rule="evenodd" d="M405.03 343.65L629.19 343.65L629.19 343.65L629.19 334.16L629.19 334.16L405.03 334.16z" /></clipPath><clipPath id="191"><path clip-rule="evenodd" d="M21.75 252.64L245.91 252.64L245.91 252.64L245.91 243.15L245.91 243.15L21.75 243.15z" /></clipPath><clipPath id="192"><path clip-rule="evenodd" d="M21.75 252.64L245.91 252.64L245.91 252.64L245.91 243.15L245.91 243.15L21.75 243.15z" /></clipPath><clipPath id="193"><path clip-rule="evenodd" d="M250.73 394.68L316.59 394.68L316.59 394.68L316.59 385.19L316.59 385.19L250.73 385.19z" /></clipPath><clipPath id="194"><path clip-rule="evenodd" d="M250.73 394.68L316.59 394.68L316.59 394.68L316.59 385.19L316.59 385.19L250.73 385.19z" /></clipPath><clipPath id="195"><path clip-rule="evenodd" d="M407.99 491.72L632.15 491.72L632.15 491.72L632.15 482.23L632.15 482.23L407.99 482.23z" /></clipPath><clipPath id="196"><path clip-rule="evenodd" d="M407.99 491.72L632.15 491.72L632.15 491.72L632.15 482.23L632.15 482.23L407.99 482.23z" /></clipPath><clipPath id="197"><path clip-rule="evenodd" d="M636.78 506.82L702.64 506.82L702.64 506.82L702.64 497.33L702.64 497.33L636.78 497.33z" /></clipPath><clipPath id="198"><path clip-rule="evenodd" d="M636.78 506.82L702.64 506.82L702.64 506.82L702.64 497.33L702.64 497.33L636.78 497.33z" /></clipPath><clipPath id="199"><path clip-rule="evenodd" d="M497.61 36.78998L719.52 36.78998L719.52 36.78998L719.52 25.08997L719.52 25.08997L497.61 25.08997z" /></clipPath><clipPath id="200"><path clip-rule="evenodd" d="M497.61 36.78998L719.52 36.78998L719.52 36.78998L719.52 25.08997L719.52 25.08997L497.61 25.08997z" /></clipPath><clipPath id="201"><path clip-rule="evenodd" d="M21.75 264.21L245.91 264.21L245.91 264.21L245.91 254.72L245.91 254.72L21.75 254.72z" /></clipPath><clipPath id="202"><path clip-rule="evenodd" d="M21.75 264.21L245.91 264.21L245.91 264.21L245.91 254.72L245.91 254.72L21.75 254.72z" /></clipPath><clipPath id="203"><path clip-rule="evenodd" d="M250.91 241.44L316.77 241.44L316.77 241.44L316.77 231.95L316.77 231.95L250.91 231.95z" /></clipPath><clipPath id="204"><path clip-rule="evenodd" d="M250.91 241.44L316.77 241.44L316.77 241.44L316.77 231.95L316.77 231.95L250.91 231.95z" /></clipPath><clipPath id="205"><path clip-rule="evenodd" d="M21.53 120.03L174.88 120.03L174.88 120.03L174.88 109.05L174.88 109.05L21.53 109.05z" /></clipPath><clipPath id="206"><path clip-rule="evenodd" d="M21.53 120.03L174.88 120.03L174.88 120.03L174.88 109.05L174.88 109.05L21.53 109.05z" /></clipPath><clipPath id="207"><path clip-rule="evenodd" d="M22.05 205.13L216.83 205.13L216.83 205.13L216.83 189.03L216.83 189.03L22.05 189.03z" /></clipPath><clipPath id="208"><path clip-rule="evenodd" d="M22.05 205.13L216.83 205.13L216.83 205.13L216.83 189.03L216.83 189.03L22.05 189.03z" /></clipPath><clipPath id="209"><path clip-rule="evenodd" d="M251.28 320.6L317.14 320.6L317.14 320.6L317.14 311.11L317.14 311.11L251.28 311.11z" /></clipPath><clipPath id="210"><path clip-rule="evenodd" d="M251.28 320.6L317.14 320.6L317.14 320.6L317.14 311.11L317.14 311.11L251.28 311.11z" /></clipPath><clipPath id="211"><path clip-rule="evenodd" d="M320.65 499.67L386.51 499.67L386.51 499.67L386.51 490.18L386.51 490.18L320.65 490.18z" /></clipPath><clipPath id="212"><path clip-rule="evenodd" d="M320.65 499.67L386.51 499.67L386.51 499.67L386.51 490.18L386.51 490.18L320.65 490.18z" /></clipPath><clipPath id="213"><path clip-rule="evenodd" d="M405.04 379L629.2 379L629.2 379L629.2 369.51L629.2 369.51L405.04 369.51z" /></clipPath><clipPath id="214"><path clip-rule="evenodd" d="M405.04 379L629.2 379L629.2 379L629.2 369.51L629.2 369.51L405.04 369.51z" /></clipPath><clipPath id="215"><path clip-rule="evenodd" d="M245.98 205.13L385.98 205.13L385.98 205.13L385.98 189.03L385.98 189.03L245.98 189.03z" /></clipPath><clipPath id="216"><path clip-rule="evenodd" d="M245.98 205.13L385.98 205.13L385.98 205.13L385.98 189.03L385.98 189.03L245.98 189.03z" /></clipPath><clipPath id="217"><path clip-rule="evenodd" d="M705.66 427.75L771.52 427.75L771.52 427.75L771.52 418.26L771.52 418.26L705.66 418.26z" /></clipPath><clipPath id="218"><path clip-rule="evenodd" d="M705.66 427.75L771.52 427.75L771.52 427.75L771.52 418.26L771.52 418.26L705.66 418.26z" /></clipPath><clipPath id="219"><path clip-rule="evenodd" d="M21.53 131.51L174.88 131.51L174.88 131.51L174.88 120.53L174.88 120.53L21.53 120.53z" /></clipPath><clipPath id="220"><path clip-rule="evenodd" d="M21.53 131.51L174.88 131.51L174.88 131.51L174.88 120.53L174.88 120.53L21.53 120.53z" /></clipPath><clipPath id="221"><path clip-rule="evenodd" d="M405.64 205.16L580.79 205.16L580.79 205.16L580.79 189.06L580.79 189.06L405.64 189.06z" /></clipPath><clipPath id="222"><path clip-rule="evenodd" d="M405.64 205.16L580.79 205.16L580.79 205.16L580.79 189.06L580.79 189.06L405.64 189.06z" /></clipPath><clipPath id="223"><path clip-rule="evenodd" d="M181.24 142.72L655.8 142.72L655.8 142.72L655.8 131.74L655.8 131.74L181.24 131.74z" /></clipPath><clipPath id="224"><path clip-rule="evenodd" d="M181.24 142.72L655.8 142.72L655.8 142.72L655.8 131.74L655.8 131.74L181.24 131.74z" /></clipPath><clipPath id="225"><path clip-rule="evenodd" d="M21.75 320.6L245.91 320.6L245.91 320.6L245.91 311.11L245.91 311.11L21.75 311.11z" /></clipPath><clipPath id="226"><path clip-rule="evenodd" d="M21.75 320.6L245.91 320.6L245.91 320.6L245.91 311.11L245.91 311.11L21.75 311.11z" /></clipPath><clipPath id="227"><path clip-rule="evenodd" d="M709.85 104.2L770.59 104.2L770.59 104.2L770.59 94.25L770.59 94.25L709.85 94.25z" /></clipPath><clipPath id="228"><path clip-rule="evenodd" d="M709.85 104.2L770.59 104.2L770.59 104.2L770.59 94.25L770.59 94.25L709.85 94.25z" /></clipPath><clipPath id="229"><path clip-rule="evenodd" d="M21.75 332.17L245.91 332.17L245.91 332.17L245.91 322.68L245.91 322.68L21.75 322.68z" /></clipPath><clipPath id="230"><path clip-rule="evenodd" d="M21.75 332.17L245.91 332.17L245.91 332.17L245.91 322.68L245.91 322.68L21.75 322.68z" /></clipPath><clipPath id="231"><path clip-rule="evenodd" d="M21.75 472.18L245.91 472.18L245.91 472.18L245.91 462.69L245.91 462.69L21.75 462.69z" /></clipPath><clipPath id="232"><path clip-rule="evenodd" d="M21.75 472.18L245.91 472.18L245.91 472.18L245.91 462.69L245.91 462.69L21.75 462.69z" /></clipPath><clipPath id="233"><path clip-rule="evenodd" d="M405.04 286.65L629.2 286.65L629.2 286.65L629.2 277.16L629.2 277.16L405.04 277.16z" /></clipPath><clipPath id="234"><path clip-rule="evenodd" d="M405.04 286.65L629.2 286.65L629.2 286.65L629.2 277.16L629.2 277.16L405.04 277.16z" /></clipPath><clipPath id="235"><path clip-rule="evenodd" d="M21.75 449.96L245.91 449.96L245.91 449.96L245.91 440.47L245.91 440.47L21.75 440.47z" /></clipPath><clipPath id="236"><path clip-rule="evenodd" d="M21.75 449.96L245.91 449.96L245.91 449.96L245.91 440.47L245.91 440.47L21.75 440.47z" /></clipPath><clipPath id="237"><path clip-rule="evenodd" d="M320.34 252.64L386.2 252.64L386.2 252.64L386.2 243.15L386.2 243.15L320.34 243.15z" /></clipPath><clipPath id="238"><path clip-rule="evenodd" d="M320.34 252.64L386.2 252.64L386.2 252.64L386.2 243.15L386.2 243.15L320.34 243.15z" /></clipPath><clipPath id="239"><path clip-rule="evenodd" d="M251.46 332.17L317.32 332.17L317.32 332.17L317.32 322.68L317.32 322.68L251.46 322.68z" /></clipPath><clipPath id="240"><path clip-rule="evenodd" d="M251.46 332.17L317.32 332.17L317.32 332.17L317.32 322.68L317.32 322.68L251.46 322.68z" /></clipPath></defs><g transform="matrix(1.333333 0 0 1.333333 0 0)"><g><g clip-path="url(#1)"><g transform="matrix(0.9996538 0 0 0.9996499 -0.0033417 0.9768066)"><g transform="matrix(1 0 0 1 0 0)"><image x="0" y="0" xlink:href="img_01.png" width="792" height="612" /></g></g><path transform="matrix(1 0 0 -1 0 612)" d="M17.64 535.8L774.24 535.8" stroke="#A4A4A4" stroke-width="0.48" fill="none" /><path transform="matrix(1 0 0 -1 0 612)" d="M17.64 519.6L774.24 519.6" stroke="#A4A4A4" stroke-width="0.48" fill="none" /><path transform="matrix(1 0 0 -1 0 612)" d="M17.64 507.96L774.24 507.96" stroke="#A4A4A4" stroke-width="0.48" fill="none" /><path transform="matrix(1 0 0 -1 0 612)" d="M17.64 454.44L774.24 454.44" stroke="#A4A4A4" stroke-width="0.48" fill="none" /><path transform="matrix(1 0 0 -1 0 612)" d="M17.64 406.8L390.24 406.8" stroke="#A4A4A4" stroke-width="0.48" fill="none" /><path transform="matrix(1 0 0 -1 0 612)" d="M17.64 229.44L390.24 229.44" stroke="#A4A4A4" stroke-width="0.48" fill="none" /><path transform="matrix(1 0 0 -1 0 612)" d="M17.64 214.44L390.24 214.44" stroke="#A4A4A4" stroke-width="0.48" fill="none" /><path transform="matrix(1 0 0 -1 0 612)" d="M17.64 204.48L390.24 204.48" stroke="#A4A4A4" stroke-width="0.48" fill="none" /><path transform="matrix(1 0 0 -1 0 612)" d="M17.64 187.44L390.24 187.44" stroke="#A4A4A4" stroke-width="0.48" fill="none" /><path transform="matrix(1 0 0 -1 0 612)" d="M17.64 123.72L390.24 123.72" stroke="#A4A4A4" stroke-width="0.48" fill="none" /><path transform="matrix(1 0 0 -1 0 612)" d="M17.64 108.72L390.24 108.72" stroke="#A4A4A4" stroke-width="0.48" fill="none" /><path transform="matrix(1 0 0 -1 0 612)" d="M401.64 406.8L774.24 406.8" stroke="#A4A4A4" stroke-width="0.48" fill="none" /><path transform="matrix(1 0 0 -1 0 612)" d="M401.64 394.8L774.24 394.8" stroke="#A4A4A4" stroke-width="0.48" fill="none" /><path transform="matrix(1 0 0 -1 0 612)" d="M401.52 144L774 144" stroke="#A4A4A4" stroke-width="0.48" fill="none" /><path transform="matrix(1 0 0 -1 0 612)" d="M401.52 117.36L774 117.36" stroke="#A4A4A4" stroke-width="0.48" fill="none" /><path transform="matrix(1 0 0 -1 0 612)" d="M401.52 101.04L774 101.04" stroke="#A4A4A4" stroke-width="0.48" fill="none" /><path transform="matrix(1 0 0 -1 0 612)" d="M401.52 154.56L774 154.56" stroke="#A4A4A4" stroke-width="0.48" fill="none" /><path transform="matrix(1 0 0 -1 0 612)" d="M401.52 169.56L774 169.56" stroke="#A4A4A4" stroke-width="0.48" fill="none" /><path transform="matrix(1 0 0 -1 0 612)" d="M400.52 181.56L773 181.56" stroke="#A4A4A4" stroke-width="0.48" fill="none" /><path transform="matrix(1 0 0 -1 0 612)" d="M400.52 198.56L773 198.56" stroke="#A4A4A4" stroke-width="0.48" fill="none" /><path transform="matrix(1 0 0 -1 0 612)" d="M17.28 558.63L104.43 558.63" stroke="#184690" stroke-width="0.46667" fill="none" /><g transform="matrix(0.2172671 0 0 0.2172727 15.62 16.90002)"><g transform="matrix(1 0 0 1 0 0)"><image x="0" y="0" xlink:href="img_02.png" width="644" height="121" /></g></g><g clip-path="url(#2)"><g clip-path="url(#3)"></g></g><g clip-path="url(#4)"><g clip-path="url(#5)"></g></g><g clip-path="url(#6)"><g clip-path="url(#7)"></g></g><g clip-path="url(#8)"><g clip-path="url(#9)"></g></g><g clip-path="url(#10)"><g clip-path="url(#11)"></g></g><g clip-path="url(#12)"><g clip-path="url(#13)"></g></g><g clip-path="url(#14)"><g clip-path="url(#15)"></g></g><g clip-path="url(#16)"><g clip-path="url(#17)"></g></g><g clip-path="url(#18)"><g clip-path="url(#19)"></g></g><g clip-path="url(#20)"><g clip-path="url(#21)"></g></g><g clip-path="url(#22)"><g clip-path="url(#23)"></g></g><g clip-path="url(#24)"><g clip-path="url(#25)"></g></g><g clip-path="url(#26)"><g clip-path="url(#27)"></g></g><g clip-path="url(#28)"><g clip-path="url(#29)"></g></g><g clip-path="url(#30)"><g clip-path="url(#31)"></g></g><g clip-path="url(#32)"><g clip-path="url(#33)"></g></g><g clip-path="url(#34)"><g clip-path="url(#35)"></g></g><g clip-path="url(#36)"><g clip-path="url(#37)"></g></g><g clip-path="url(#38)"><g clip-path="url(#39)"></g></g><g clip-path="url(#40)"><g clip-path="url(#41)"></g></g><g clip-path="url(#42)"><g clip-path="url(#43)"></g></g><g clip-path="url(#44)"><g clip-path="url(#45)"></g></g><g clip-path="url(#46)"><g clip-path="url(#47)"></g></g><g clip-path="url(#48)"><g clip-path="url(#49)"></g></g><g clip-path="url(#50)"><g clip-path="url(#51)"></g></g><g clip-path="url(#52)"><g clip-path="url(#53)"></g></g><g clip-path="url(#54)"><g clip-path="url(#55)"></g></g><g clip-path="url(#56)"><g clip-path="url(#57)"></g></g><g clip-path="url(#58)"><g clip-path="url(#59)"></g></g><g clip-path="url(#60)"><g clip-path="url(#61)"></g></g><g clip-path="url(#62)"><g clip-path="url(#63)"></g></g><g clip-path="url(#64)"><g clip-path="url(#65)"></g></g><g clip-path="url(#66)"><g clip-path="url(#67)"></g></g><g clip-path="url(#68)"><g clip-path="url(#69)"></g></g><g clip-path="url(#70)"><g clip-path="url(#71)"></g></g><g clip-path="url(#72)"><g clip-path="url(#73)"></g></g><g clip-path="url(#74)"><g clip-path="url(#75)"></g></g><g clip-path="url(#76)"><g clip-path="url(#77)"></g></g><g clip-path="url(#78)"><g clip-path="url(#79)"></g></g><g clip-path="url(#80)"><g clip-path="url(#81)"></g></g><g clip-path="url(#82)"><g clip-path="url(#83)"></g></g><g clip-path="url(#84)"><g clip-path="url(#85)"></g></g><g clip-path="url(#86)"><g clip-path="url(#87)"></g></g><g clip-path="url(#88)"><g clip-path="url(#89)"></g></g><g clip-path="url(#90)"><g clip-path="url(#91)"></g></g><g clip-path="url(#92)"><g clip-path="url(#93)"></g></g><g clip-path="url(#94)"><g clip-path="url(#95)"></g></g><g clip-path="url(#96)"><g clip-path="url(#97)"></g></g><g clip-path="url(#98)"><g clip-path="url(#99)"></g></g><g clip-path="url(#100)"><g clip-path="url(#101)"></g></g><g clip-path="url(#102)"><g clip-path="url(#103)"></g></g><g clip-path="url(#104)"><g clip-path="url(#105)"></g></g><g clip-path="url(#106)"><g clip-path="url(#107)"></g></g><g clip-path="url(#108)"><g clip-path="url(#109)"></g></g><g clip-path="url(#110)"><g clip-path="url(#111)"></g></g><g clip-path="url(#112)"><g clip-path="url(#113)"></g></g><g clip-path="url(#114)"><g clip-path="url(#115)"></g></g><g clip-path="url(#116)"><g clip-path="url(#117)"></g></g><g clip-path="url(#118)"><g clip-path="url(#119)"></g></g><g clip-path="url(#120)"><g clip-path="url(#121)"></g></g><g clip-path="url(#122)"><g clip-path="url(#123)"></g></g><g clip-path="url(#124)"><g clip-path="url(#125)"></g></g><g clip-path="url(#126)"><g clip-path="url(#127)"></g></g><g clip-path="url(#128)"><g clip-path="url(#129)"></g></g><g clip-path="url(#130)"><g clip-path="url(#131)"></g></g><g clip-path="url(#132)"><g clip-path="url(#133)"></g></g><g clip-path="url(#134)"><g clip-path="url(#135)"></g></g><g clip-path="url(#136)"><g clip-path="url(#137)"></g></g><g clip-path="url(#138)"><g clip-path="url(#139)"></g></g><g clip-path="url(#140)"><g clip-path="url(#141)"></g></g><g clip-path="url(#142)"><g clip-path="url(#143)"></g></g><g clip-path="url(#144)"><g clip-path="url(#145)"></g></g><g clip-path="url(#146)"><g clip-path="url(#147)"></g></g><g clip-path="url(#148)"><g clip-path="url(#149)"></g></g><g clip-path="url(#150)"><g clip-path="url(#151)"></g></g><g clip-path="url(#152)"><g clip-path="url(#153)"></g></g><g clip-path="url(#154)"><g clip-path="url(#155)"></g></g><g clip-path="url(#156)"><g clip-path="url(#157)"></g></g><g clip-path="url(#158)"><g clip-path="url(#159)"></g></g><g clip-path="url(#160)"></g><g clip-path="url(#161)"><g clip-path="url(#162)"></g></g><g clip-path="url(#163)"><g clip-path="url(#164)"></g></g><g clip-path="url(#165)"><g clip-path="url(#166)"></g></g><g clip-path="url(#167)"><g clip-path="url(#168)"></g></g><g clip-path="url(#169)"><g clip-path="url(#170)"></g></g><g clip-path="url(#171)"><g clip-path="url(#172)"></g></g><g clip-path="url(#173)"><g clip-path="url(#174)"></g></g><g clip-path="url(#175)"><g clip-path="url(#176)"></g></g><g clip-path="url(#177)"><g clip-path="url(#178)"></g></g><g clip-path="url(#179)"><g clip-path="url(#180)"></g></g><g clip-path="url(#181)"><g clip-path="url(#182)"></g></g><g clip-path="url(#183)"><g clip-path="url(#184)"></g></g><g clip-path="url(#185)"><g clip-path="url(#186)"></g></g><g clip-path="url(#187)"><g clip-path="url(#188)"></g></g><g clip-path="url(#189)"><g clip-path="url(#190)"></g></g><g clip-path="url(#191)"><g clip-path="url(#192)"></g></g><g clip-path="url(#193)"><g clip-path="url(#194)"></g></g><g clip-path="url(#195)"><g clip-path="url(#196)"></g></g><g clip-path="url(#197)"><g clip-path="url(#198)"></g></g><g clip-path="url(#199)"><g clip-path="url(#200)"></g></g><g clip-path="url(#201)"><g clip-path="url(#202)"></g></g><g clip-path="url(#203)"><g clip-path="url(#204)"></g></g><g clip-path="url(#205)"><g clip-path="url(#206)"></g></g><g clip-path="url(#207)"><g clip-path="url(#208)"></g></g><g clip-path="url(#209)"><g clip-path="url(#210)"></g></g><g clip-path="url(#211)"><g clip-path="url(#212)"></g></g><g clip-path="url(#213)"><g clip-path="url(#214)"></g></g><g clip-path="url(#215)"><g clip-path="url(#216)"></g></g><g clip-path="url(#217)"><g clip-path="url(#218)"></g></g><g clip-path="url(#219)"><g clip-path="url(#220)"></g></g><g clip-path="url(#221)"><g clip-path="url(#222)"></g></g><g clip-path="url(#223)"><g clip-path="url(#224)"></g></g><g clip-path="url(#225)"><g clip-path="url(#226)"></g></g><g clip-path="url(#227)"><g clip-path="url(#228)"></g></g><g clip-path="url(#229)"><g clip-path="url(#230)"></g></g><g clip-path="url(#231)"><g clip-path="url(#232)"></g></g><g clip-path="url(#233)"><g clip-path="url(#234)"></g></g><g clip-path="url(#235)"><g clip-path="url(#236)"></g></g><g clip-path="url(#237)"><g clip-path="url(#238)"></g></g><g clip-path="url(#239)"><g clip-path="url(#240)"></g></g></g></g></g></svg>